<?xml version="1.0" encoding="utf-8"?>
<!-- Generator: Adobe Illustrator 21.0.0, SVG Export Plug-In . SVG Version: 6.00 Build 0)  -->
<svg version="1.1" id="Layer_1" xmlns="http://www.w3.org/2000/svg" xmlns:xlink="http://www.w3.org/1999/xlink" x="0px" y="0px"
	 viewBox="0 0 52.1 51.3" style="enable-background:new 0 0 52.1 51.3;" xml:space="preserve">
<style type="text/css">
	.st0{fill:url(#SVGID_1_);}
	.st1{fill:#F5841F;}
</style>
<g>
	<linearGradient id="SVGID_1_" gradientUnits="userSpaceOnUse" x1="17.0667" y1="50.4001" x2="42.0667" y2="17.7334">
		<stop  offset="0" style="stop-color:#000000;stop-opacity:0.5"/>
		<stop  offset="1" style="stop-color:#CFCFCF;stop-opacity:5.000000e-02"/>
	</linearGradient>
	<path class="st0" d="M50.1,28.9c4.6-6.3,1-11.6-8.1-11.8C33,17,22,22,17.4,28.3c-1.5,2.1-2.1,4.1-1.9,5.9l0,0l1.8,17.2l26.3-16.6
		l0,0C46.3,33,48.5,31.1,50.1,28.9z M31,32.4c-3-0.1-4.1-1.8-2.6-3.8c1.5-2.1,5.1-3.7,8.1-3.6c3,0.1,4.1,1.8,2.6,3.8
		S34,32.4,31,32.4z"/>
	<path class="st1" d="M34.4,17.2C34.4,7.7,26.7,0,17.2,0S0,7.7,0,17.2c0,3.2,0.9,6.2,2.4,8.7h0l14.8,25.4L32,25.9h0
		C33.5,23.4,34.4,20.4,34.4,17.2z M17.2,22.8c-3.1,0-5.6-2.5-5.6-5.6s2.5-5.6,5.6-5.6s5.6,2.5,5.6,5.6S20.3,22.8,17.2,22.8z"/>
</g>
</svg>
