<?xml version="1.0" encoding="utf-8"?>
<!-- Generator: Adobe Illustrator 21.0.0, SVG Export Plug-In . SVG Version: 6.00 Build 0)  -->
<svg version="1.1" id="Layer_1" xmlns="http://www.w3.org/2000/svg" xmlns:xlink="http://www.w3.org/1999/xlink" x="0px" y="0px"
	 viewBox="0 0 11.1 7.9" style="enable-background:new 0 0 11.1 7.9;" xml:space="preserve">
<style type="text/css">
	.st0{fill-rule:evenodd;clip-rule:evenodd;fill:#40A548;}
</style>
<path class="st0" d="M4.3,7.7C4.1,8,3.7,8,3.4,7.7L0.2,4.5c-0.3-0.3-0.3-0.7,0-0.9c0.3-0.3,0.7-0.3,0.9,0l3.2,3.2
	C4.6,7.1,4.6,7.5,4.3,7.7z"/>
<path class="st0" d="M3.4,7.7C3.7,8,4.1,8,4.3,7.7l6.5-6.6c0.3-0.3,0.3-0.7,0-0.9s-0.7-0.3-0.9,0L3.4,6.8C3.2,7,3.2,7.4,3.4,7.7z"/>
</svg>
