<?xml version="1.0" encoding="utf-8"?>
<!-- Generator: Adobe Illustrator 21.0.0, SVG Export Plug-In . SVG Version: 6.00 Build 0)  -->
<svg version="1.1" id="Layer_1" xmlns="http://www.w3.org/2000/svg" xmlns:xlink="http://www.w3.org/1999/xlink" x="0px" y="0px"
	 viewBox="0 0 7.7 7.7" style="enable-background:new 0 0 7.7 7.7;" xml:space="preserve">
<style type="text/css">
	.st0{fill-rule:evenodd;clip-rule:evenodd;fill:#D63327;}
</style>
<path class="st0" d="M1.1,0.2l6.4,6.4c0.3,0.3,0.3,0.7,0,0.9c-0.3,0.3-0.7,0.3-0.9,0L0.2,1.1c-0.3-0.3-0.3-0.7,0-0.9
	C0.4-0.1,0.9-0.1,1.1,0.2z"/>
<path class="st0" d="M7.5,1.1L1.1,7.5c-0.3,0.3-0.7,0.3-0.9,0c-0.3-0.3-0.3-0.7,0-0.9l6.4-6.4c0.3-0.3,0.7-0.3,0.9,0
	C7.8,0.4,7.8,0.9,7.5,1.1z"/>
</svg>
