<?xml version="1.0" encoding="utf-8"?>
<!-- Generator: Adobe Illustrator 21.0.0, SVG Export Plug-In . SVG Version: 6.00 Build 0)  -->
<svg version="1.1" id="Layer_1" xmlns="http://www.w3.org/2000/svg" xmlns:xlink="http://www.w3.org/1999/xlink" x="0px" y="0px"
	 viewBox="0 0 16 16" style="enable-background:new 0 0 16 16;" xml:space="preserve">
<style type="text/css">
	.st0{fill:#C8C8C8;}
	.st1{fill-rule:evenodd;clip-rule:evenodd;fill:#C8C8C8;}
</style>
<path class="st0" d="M8,1c3.9,0,7,3.1,7,7c0,3.9-3.1,7-7,7c-3.9,0-7-3.2-7-7C1,4.1,4.1,1,8,1 M8,0C3.6,0,0,3.6,0,8s3.6,8,8,8
	c4.4,0,8-3.6,8-8S12.4,0,8,0L8,0z"/>
<path class="st1" d="M4.5,7.5h7C11.8,7.5,12,7.7,12,8c0,0.3-0.2,0.5-0.5,0.5h-7C4.2,8.5,4,8.3,4,8C4,7.7,4.2,7.5,4.5,7.5z"/>
<path class="st1" d="M8.5,4.5v7C8.5,11.8,8.3,12,8,12c-0.3,0-0.5-0.2-0.5-0.5v-7C7.5,4.2,7.7,4,8,4C8.3,4,8.5,4.2,8.5,4.5z"/>
</svg>
