<?xml version="1.0" encoding="utf-8"?>
<!-- Generator: Adobe Illustrator 18.1.0, SVG Export Plug-In . SVG Version: 6.00 Build 0)  -->
<svg version="1.1" id="Layer_1" xmlns="http://www.w3.org/2000/svg" xmlns:xlink="http://www.w3.org/1999/xlink" x="0px" y="0px"
	 viewBox="0 0 595.3 595.3" enable-background="new 0 0 595.3 595.3" xml:space="preserve">
<path fill="#F69302" d="M230.6,498.7c-10.7,16.1-32.2,16.1-48.3,0L10.7,327.1c-16.1-16.1-16.1-37.5,0-48.3
	c16.1-16.1,37.5-16.1,48.3,0l171.6,171.6C246.7,466.6,246.7,488,230.6,498.7z"/>
<path fill="#F69302" d="M182.3,498.7c16.1,16.1,37.5,16.1,48.3,0l348.6-354c16.1-16.1,16.1-37.5,0-48.3c-16.1-10.7-37.5-16.1-48.3,0
	l-348.6,354C171.6,461.2,171.6,482.7,182.3,498.7z"/>
</svg>
