<?xml version="1.0" encoding="utf-8"?>
<!-- Generator: Adobe Illustrator 21.0.0, SVG Export Plug-In . SVG Version: 6.00 Build 0)  -->
<svg version="1.1" id="Layer_1" xmlns="http://www.w3.org/2000/svg" xmlns:xlink="http://www.w3.org/1999/xlink" x="0px" y="0px"
	 viewBox="0 0 17.2 19.2" style="enable-background:new 0 0 17.2 19.2;" xml:space="preserve">
<style type="text/css">
	.st0{fill:#F5841F;}
</style>
<path class="st0" d="M6.3,18.1l1.5,1c0.1,0.1,0.2,0.1,0.3,0.1c0.2,0,0.3-0.1,0.4-0.2l8.6-13.2c0.2-0.3,0.1-0.5-0.1-0.7l-1.5-1
	L15.2,4c-0.1,0-0.3,0-0.4,0.1c-0.4,0.5-1.1,0.7-1.7,0.7c-0.4,0-0.8-0.1-1.1-0.3c-0.9-0.6-1.2-1.8-0.8-2.8c0-0.2,0-0.5-0.2-0.6
	l-1.5-1C9.3,0,9.2,0,9.1,0C9,0,8.8,0.1,8.7,0.2L0.1,13.5C-0.1,13.7,0,14,0.2,14.2l1.5,1L2,15.2c0.1,0,0.3,0,0.4-0.1
	c0.5-0.5,1.1-0.7,1.7-0.7c0.4,0,0.8,0.1,1.2,0.4c0.9,0.6,1.2,1.8,0.8,2.8C6,17.7,6.1,18,6.3,18.1z"/>
</svg>
