<?xml version="1.0" encoding="utf-8"?>
<!-- Generator: Adobe Illustrator 21.0.0, SVG Export Plug-In . SVG Version: 6.00 Build 0)  -->
<svg version="1.1" id="Layer_2" xmlns="http://www.w3.org/2000/svg" xmlns:xlink="http://www.w3.org/1999/xlink" x="0px" y="0px"
	 viewBox="0 0 21.1 22" style="enable-background:new 0 0 21.1 22;" xml:space="preserve">
<style type="text/css">
	.st0{fill:#40474C;}
</style>
<g>
	<g>
		<path class="st0" d="M3.9,3h13.3c0.1,0,0.2-0.1,0.2-0.2V2.2c0-0.1-0.1-0.2-0.2-0.2H3.9C3.8,2,3.7,2.1,3.7,2.2v0.5
			C3.7,2.9,3.8,3,3.9,3z"/>
		<path class="st0" d="M18.3,0.2C18.2,0.1,18.1,0,17.9,0H3.2C3,0,2.9,0.1,2.8,0.2L2.2,1.4C2.1,1.6,2.1,1.8,2.1,2v17.8
			c0,0.2,0.2,0.4,0.4,0.4h16.1c0.2,0,0.4-0.2,0.4-0.4V2c0-0.2,0-0.4-0.1-0.6L18.3,0.2z M3.3,2.1c0-0.2,0.2-0.4,0.4-0.4h13.6
			c0.2,0,0.4,0.2,0.4,0.4v0.8c0,0.2-0.2,0.4-0.4,0.4H3.7c-0.2,0-0.4-0.2-0.4-0.4V2.1z M17.7,16.5c0,0.2-0.2,0.4-0.4,0.4H3.7
			c-0.2,0-0.4-0.2-0.4-0.4v-0.9c0-0.2,0.2-0.4,0.4-0.4h2.4c0.1,0,0.2,0,0.3,0.1L7,16c0.1,0.1,0.2,0.1,0.3,0.1h6.4
			c0.1,0,0.2,0,0.3-0.1l0.6-0.6c0.1-0.1,0.2-0.1,0.3-0.1h2.4c0.2,0,0.4,0.2,0.4,0.4V16.5z M18.6,13.1c0,0.2-0.2,0.4-0.4,0.4H2.9
			c-0.2,0-0.4-0.2-0.4-0.4V5.5c0-0.2,0.2-0.4,0.4-0.4h15.3c0.2,0,0.4,0.2,0.4,0.4V13.1z"/>
		<path class="st0" d="M2.8,21.6C2.8,21.8,3,22,3.3,22H5c0.2,0,0.4-0.2,0.4-0.4v-0.9H2.8V21.6z"/>
		<path class="st0" d="M15.6,21.6c0,0.2,0.2,0.4,0.4,0.4h1.7c0.2,0,0.4-0.2,0.4-0.4v-0.9h-2.6V21.6z"/>
		<path class="st0" d="M1.3,5.1H1c-0.1,0-0.2,0-0.3,0.1L0.1,5.8C0,5.9,0,6,0,6.1v3.6c0,0.2,0.2,0.4,0.4,0.4h0.8
			c0.2,0,0.4-0.2,0.4-0.4V5.5C1.7,5.2,1.5,5.1,1.3,5.1z"/>
		<path class="st0" d="M20.9,5.8l-0.6-0.6c-0.1-0.1-0.2-0.1-0.3-0.1h-0.2c-0.2,0-0.4,0.2-0.4,0.4v4.2c0,0.2,0.2,0.4,0.4,0.4h0.8
			c0.2,0,0.4-0.2,0.4-0.4V6.1C21.1,6,21,5.9,20.9,5.8z"/>
	</g>
</g>
</svg>
