<?xml version="1.0" encoding="utf-8"?>
<!-- Generator: Adobe Illustrator 21.0.0, SVG Export Plug-In . SVG Version: 6.00 Build 0)  -->
<svg version="1.1" id="Layer_1" xmlns="http://www.w3.org/2000/svg" xmlns:xlink="http://www.w3.org/1999/xlink" x="0px" y="0px"
	 viewBox="0 0 41.4 34.4" style="enable-background:new 0 0 41.4 34.4;" xml:space="preserve">
<style type="text/css">
	.st0{fill:none;stroke:#F5841F;stroke-width:1.5;stroke-linecap:round;stroke-linejoin:round;stroke-miterlimit:10;}
</style>
<g>
	<path class="st0" d="M35.8,15.3v11.4c0,2-1.6,3.6-3.6,3.6H4.3c-2,0-3.6-1.6-3.6-3.6V9.1c0-2,1.6-3.6,3.6-3.6h21.8"/>
	<g>
		<g>
			<path class="st0" d="M26.1,0.8c3.7,0,7.4,1.4,10.3,4.2c2.8,2.8,4.2,6.5,4.2,10.3"/>
			<path class="st0" d="M26.1,5.6c2.5,0,5,0.9,6.8,2.8c1.9,1.9,2.8,4.4,2.8,6.8"/>
			<path class="st0" d="M26.1,10.4c1.2,0,2.5,0.5,3.4,1.4c0.9,0.9,1.4,2.2,1.4,3.4"/>
		</g>
		<ellipse transform="matrix(0.7071 -0.7071 0.7071 0.7071 -3.1355 22.949)" class="st0" cx="26.1" cy="15.3" rx="1" ry="1"/>
	</g>
	<line class="st0" x1="10.4" y1="33.6" x2="25.1" y2="33.6"/>
</g>
</svg>
