<?xml version="1.0" encoding="utf-8"?>
<!-- Generator: Adobe Illustrator 21.0.0, SVG Export Plug-In . SVG Version: 6.00 Build 0)  -->
<svg version="1.1" xmlns="http://www.w3.org/2000/svg" xmlns:xlink="http://www.w3.org/1999/xlink" x="0px" y="0px"
	 viewBox="0 0 46.9 40.7" style="enable-background:new 0 0 46.9 40.7;" xml:space="preserve">
<style type="text/css">
	.st0{fill:none;stroke:#F5841F;stroke-width:1.5;stroke-linecap:round;stroke-linejoin:round;stroke-miterlimit:10;}
	.st1{display:none;}
	.st2{display:inline;}
	.st3{display:inline;fill:none;stroke:#F5841F;stroke-width:1.5;stroke-linecap:round;stroke-linejoin:round;stroke-miterlimit:10;}
</style>
<g id="Layer_1">
	<g>
		<path class="st0" d="M23.4,28.3L23.4,28.3c-7.6,0-13.8-6.2-13.8-13.8v-2.6c0-0.8,0.7-1.5,1.5-1.5h24.7c0.8,0,1.5,0.7,1.5,1.5v2.6
			C37.2,22.2,31.1,28.3,23.4,28.3z"/>
		<g>
			<line class="st0" x1="17.3" y1="9.9" x2="17.3" y2="0.8"/>
			<line class="st0" x1="29.6" y1="9.9" x2="29.6" y2="0.8"/>
		</g>
		<path class="st0" d="M23.4,28.3v1c0,2.6,2.1,4.8,4.8,4.8h1.9c2.6,0,4.8,2.1,4.8,4.8v1"/>
	</g>
</g>
<g id="Layer_6" class="st1">
	<g class="st2">
		<path class="st0" d="M32.3,26c2.1,0,6.9,0,8.6,0c2.7,0,4.1,0.2,4.2-3.4c0-2.3,0-5.9,0-9.5v0.7c0-3.6,0-2.6,0-4.9
			c-0.1-3.6-1.5-3.4-4.2-3.4c-8.7,0-26.2,0.1-34.9,0c-2.7,0-4.1-0.2-4.2,3.4c0,2.3,0,1.3,0,4.9v-0.7c0,3.6,0,7.2,0,9.5
			C1.9,26.2,3.3,26,6,26c1.4,0,11.1,0,11.1,0"/>
		<path class="st0" d="M40.4,25.3V26c0-3.6,0-2.6,0-4.9c-0.1-3.6-1.5-3.4-4.2-3.4c-8.7,0-17,0.1-25.7,0c-2.7,0-4.1-0.2-4.2,3.4
			c0,2.3,0,1.3,0,4.9v-0.7"/>
		<g>
			<path class="st0" d="M15.7,35.2c-1.9-1.9-1.9-5.1,0-7s1.9-5.1,0-7"/>
			<path class="st0" d="M23.4,35.2c-1.9-1.9-1.9-5.1,0-7s1.9-5.1,0-7"/>
			<path class="st0" d="M31,35.2c-1.9-1.9-1.9-5.1,0-7c1.9-1.9,1.9-5.1,0-7"/>
		</g>
	</g>
</g>
<g id="Layer_5" class="st1">
	<g class="st2">
		<path class="st0" d="M38.6,18.4v11.4c0,2-1.6,3.6-3.6,3.6H7.1c-2,0-3.6-1.6-3.6-3.6V12.2c0-2,1.6-3.6,3.6-3.6h21.8"/>
		<g>
			<g>
				<path class="st0" d="M28.9,3.9c3.7,0,7.4,1.4,10.3,4.2c2.8,2.8,4.2,6.5,4.2,10.3"/>
				<path class="st0" d="M28.9,8.7c2.5,0,5,0.9,6.8,2.8c1.9,1.9,2.8,4.4,2.8,6.8"/>
				<path class="st0" d="M28.9,13.5c1.2,0,2.5,0.5,3.4,1.4c0.9,0.9,1.4,2.2,1.4,3.4"/>
			</g>
			<ellipse transform="matrix(0.7071 -0.7071 0.7071 0.7071 -4.5745 25.8682)" class="st0" cx="28.9" cy="18.5" rx="1" ry="1"/>
		</g>
		<line class="st0" x1="13.2" y1="36.7" x2="27.9" y2="36.7"/>
	</g>
</g>
<g id="Layer_4" class="st1">
	<g class="st2">
		<g>
			<path class="st0" d="M3.6,13.5c5.1-5.1,12.1-8.2,19.9-8.2s14.8,3.1,19.9,8.2"/>
			<path class="st0" d="M10.2,20.1c3.4-3.4,8.1-5.5,13.3-5.5s9.9,2.1,13.3,5.5"/>
			<path class="st0" d="M16.8,26.7c1.7-1.7,4-2.7,6.6-2.7s4.9,1,6.6,2.7"/>
		</g>
		<circle class="st0" cx="23.4" cy="33.4" r="1.9"/>
	</g>
</g>
<g id="Layer_3" class="st1">
	<g class="st2">
		<path class="st0" d="M24.9,31.9c-0.9,0-1.7-0.3-2.3-0.9L8,13.3L8.4,13c0.7-0.7,1.9-0.7,2.6,0l13.1,11.7c0.7,0.6,1.6,0.9,2.5,0.8
			l13.5-1.2c1.5-0.1,3,2.2,3.7,3.5l0,0c0.6,1.1-0.2,4-1.5,4L24.9,31.9L24.9,31.9z"/>
		<path class="st0" d="M6.7,11.4l0.4-0.3c0.8-0.7,1.1-1.9,0.4-2.8C7.2,7.8,6.4,6.9,6,6.4c-0.7-0.7-1.9-0.7-2.8,0L2.9,6.7L6.7,11.4z"
			/>
		<line class="st0" x1="25.3" y1="34.9" x2="40.3" y2="34.9"/>
	</g>
</g>
<g id="Layer_2" class="st1">
	<path class="st3" d="M46.2,27.8l-22.7,7.6L3.3,28.7c-1.5-0.5-2.5-1.9-2.5-3.4l0,0c0-2.4,2.4-4.2,4.7-3.4l18,6l19.1-6.4
		c2.1-0.7,3.6-2.7,3.6-5l0,0c0-2.3-1.4-4.3-3.6-5L23.5,5.2L0.9,12.7l22.7,7.6l15.1-5"/>
</g>
</svg>
