<?xml version="1.0" encoding="utf-8"?>
<!-- Generator: Adobe Illustrator 21.0.0, SVG Export Plug-In . SVG Version: 6.00 Build 0)  -->
<svg version="1.1" id="Layer_1" xmlns="http://www.w3.org/2000/svg" xmlns:xlink="http://www.w3.org/1999/xlink" x="0px" y="0px"
	 viewBox="0 0 44.8 31.3" style="enable-background:new 0 0 44.8 31.3;" xml:space="preserve">
<style type="text/css">
	.st0{fill:none;stroke:#F5841F;stroke-width:1.5;stroke-linecap:round;stroke-linejoin:round;stroke-miterlimit:10;}
</style>
<g>
	<path class="st0" d="M31.3,21.3c2.1,0,6.9,0,8.6,0c2.7,0,4.1,0.2,4.2-3.4c0-2.3,0-5.9,0-9.5v0.7c0-3.6,0-2.6,0-4.9
		c-0.1-3.6-1.5-3.4-4.2-3.4c-8.7,0-26.2,0.1-34.9,0c-2.7,0-4.1-0.2-4.2,3.4c0,2.3,0,1.3,0,4.9V8.4c0,3.6,0,7.2,0,9.5
		c0.1,3.6,1.5,3.4,4.2,3.4c1.4,0,11.1,0,11.1,0"/>
	<path class="st0" d="M39.4,20.6v0.7c0-3.6,0-2.6,0-4.9c-0.1-3.6-1.5-3.4-4.2-3.4c-8.7,0-17,0.1-25.7,0c-2.7,0-4.1-0.2-4.2,3.4
		c0,2.3,0,1.3,0,4.9v-0.7"/>
	<g>
		<path class="st0" d="M14.7,30.5c-1.9-1.9-1.9-5.1,0-7s1.9-5.1,0-7"/>
		<path class="st0" d="M22.4,30.5c-1.9-1.9-1.9-5.1,0-7s1.9-5.1,0-7"/>
		<path class="st0" d="M30,30.5c-1.9-1.9-1.9-5.1,0-7s1.9-5.1,0-7"/>
	</g>
</g>
</svg>
