<?xml version="1.0" encoding="utf-8"?>
<!-- Generator: Adobe Illustrator 21.0.0, SVG Export Plug-In . SVG Version: 6.00 Build 0)  -->
<svg version="1.1" id="Travel" xmlns="http://www.w3.org/2000/svg" xmlns:xlink="http://www.w3.org/1999/xlink" x="0px" y="0px"
	 viewBox="0 0 67 67" style="enable-background:new 0 0 67 67;" xml:space="preserve">
<style type="text/css">
	.st0{fill:none;stroke:#F5841F;stroke-width:1.5;stroke-miterlimit:10;}
	.st1{fill:none;stroke:#F5841F;stroke-miterlimit:10;}
</style>
<g id="_x34__5_">
	<path class="st0" d="M10.5,21C7,21,5.1,20.7,5,25.5C4.9,31.2,5,43,5.2,49.1c0.2,4.8,1,5.5,4.3,5.5c5.6,0.1,37.2,0.9,43.5-0.1
		c3-0.5,6.8-6.4,11-12.3c2.5-3.5,2.4-5-0.4-8.3c-3.8-4.7-10.7-12.6-13.2-12.6C44.3,21.1,24.9,20.9,10.5,21z"/>
	<path class="st0" d="M50.2,20.9c0.1-2.7,0.3-4.1,0-7c-0.4-4.2-0.8-5.2-5.7-5.5c-5.7-0.3-13.7,0.2-15.2,1.5
		c-2.4,2-5.3,5.4-10.8,11.1"/>
	<path class="st0" d="M13.1,54.8c1,1.2,0.9,1,1.7,1.9c2.5,3,3.6,2.7,8.1-1.7"/>
	<path class="st0" d="M4.7,34.2c-0.9,0.9,1.1-1.3-0.6,0.4c-2.6,2.6-4.1,3.8-1.7,6.9c0.8,1,1.5,1.8,2.6,3.2"/>
	<ellipse class="st1" cx="56.3" cy="38.5" rx="3.4" ry="3.5"/>
	<path class="st1" d="M44.6,17.7c0,1.9-1.5,3.4-3.3,3.4S38,19.6,38,17.7s1.5-3.4,3.3-3.4C43.1,14.2,44.6,15.8,44.6,17.7z"/>
</g>
</svg>
