<?xml version="1.0" encoding="utf-8"?>
<!-- Generator: Adobe Illustrator 21.0.0, SVG Export Plug-In . SVG Version: 6.00 Build 0)  -->
<svg version="1.1" id="Travel" xmlns="http://www.w3.org/2000/svg" xmlns:xlink="http://www.w3.org/1999/xlink" x="0px" y="0px"
	 viewBox="0 0 67 77.5" style="enable-background:new 0 0 67 77.5;" xml:space="preserve">
<style type="text/css">
	.st0{fill:none;stroke:#F5841F;stroke-width:1.5;stroke-miterlimit:10;}
	.st1{fill:none;stroke:#F5841F;stroke-miterlimit:10;}
</style>
<g>
	<path class="st0" d="M11.3,19.6c-0.5,0.5-0.7,1.2-0.7,1.9v41.8c0,1.6,1.3,2.9,2.9,2.9h41.8c1.6,0,2.9-1.3,2.9-2.9V21.6
		c0-1.6-1.3-2.9-2.9-2.9h-5.9V17c0-1.3-0.3-2.3-2.3-2.3c-2.1,0-2.3,1-2.3,2.3v1.7H30.6"/>
	<path class="st1" d="M43.3,27.2c0-0.3,0.2-0.5,0.5-0.5h8.8c0.3,0,0.5,0.2,0.5,0.5v6.3c0,0.3-0.2,0.5-0.5,0.5h-8.8
		c-0.3,0-0.5-0.2-0.5-0.5V27.2z"/>
	<path class="st1" d="M29.3,27.2c0-0.3,0.2-0.5,0.5-0.5h8.8c0.3,0,0.5,0.2,0.5,0.5v6.3c0,0.3-0.2,0.5-0.5,0.5h-8.8
		c-0.3,0-0.5-0.2-0.5-0.5V27.2z"/>
	<path class="st1" d="M24.5,26.7h0.4c0.3,0,0.5,0.2,0.5,0.5v6.3c0,0.3-0.2,0.5-0.5,0.5h-8.8c-0.3,0-0.5-0.2-0.5-0.5v-6.3
		c0-0.3,0.2-0.5,0.5-0.5h0.6"/>
	<path class="st1" d="M25.4,58.2c0,0.3-0.2,0.5-0.5,0.5h-8.8c-0.3,0-0.5-0.2-0.5-0.5v-6.3c0-0.3,0.2-0.5,0.5-0.5h8.8
		c0.3,0,0.5,0.2,0.5,0.5C25.4,51.9,25.4,58.2,25.4,58.2z"/>
	<path class="st1" d="M25.5,46.1c0,0.3-0.2,0.5-0.5,0.5h-8.8c-0.3,0-0.5-0.2-0.5-0.5v-6.3c0-0.3,0.2-0.5,0.5-0.5H25
		c0.3,0,0.5,0.2,0.5,0.5V46.1z"/>
	<path class="st1" d="M39.1,58.2c0,0.3-0.2,0.5-0.5,0.5h-8.8c-0.3,0-0.5-0.2-0.5-0.5v-6.3c0-0.3,0.2-0.5,0.5-0.5h8.8
		c0.3,0,0.5,0.2,0.5,0.5V58.2z"/>
	<path class="st1" d="M39.2,46.1c0,0.3-0.2,0.5-0.5,0.5h-8.8c-0.3,0-0.5-0.2-0.5-0.5v-6.3c0-0.3,0.2-0.5,0.5-0.5h8.8
		c0.3,0,0.5,0.2,0.5,0.5V46.1z"/>
	<path class="st1" d="M53.1,58.2c0,0.3-0.2,0.5-0.5,0.5h-8.8c-0.3,0-0.5-0.2-0.5-0.5v-6.3c0-0.3,0.2-0.5,0.5-0.5h8.8
		c0.3,0,0.5,0.2,0.5,0.5V58.2z"/>
	<path class="st1" d="M53.2,46.1c0,0.3-0.2,0.5-0.5,0.5h-8.8c-0.3,0-0.5-0.2-0.5-0.5v-6.3c0-0.3,0.2-0.5,0.5-0.5h8.8
		c0.3,0,0.5,0.2,0.5,0.5V46.1z"/>
	<path class="st0" d="M32.3,12.5c0-7-6.1-12.5-13.3-11.6c-5.1,0.6-9.3,4.7-10,9.9c-0.5,3.7,0.7,7.1,2.9,9.5l0,0l7.9,10.4
		c0.4,0.6,1.3,0.6,1.7,0l7.9-10.4l0,0C31.2,18.3,32.3,15.5,32.3,12.5z"/>
	<circle class="st1" cx="20.6" cy="12.5" r="6.6"/>
</g>
</svg>
