<?xml version="1.0" encoding="utf-8"?>
<!-- Generator: Adobe Illustrator 21.0.0, SVG Export Plug-In . SVG Version: 6.00 Build 0)  -->
<svg version="1.1" id="Travel" xmlns="http://www.w3.org/2000/svg" xmlns:xlink="http://www.w3.org/1999/xlink" x="0px" y="0px"
	 viewBox="0 0 67 67" style="enable-background:new 0 0 67 67;" xml:space="preserve">
<style type="text/css">
	.st0{fill:none;stroke:#F5841F;stroke-width:1.5;stroke-linecap:round;stroke-linejoin:round;stroke-miterlimit:10;}
	.st1{fill:none;stroke:#F5841F;stroke-linecap:round;stroke-linejoin:round;}
	.st2{fill:none;stroke:#F5841F;stroke-linecap:round;stroke-linejoin:round;stroke-dasharray:5.25,5.25;}
</style>
<g>
	<path class="st0" d="M3,40v9.7c0,2.6,2.1,4.6,4.6,4.6h51.7c2.6,0,4.6-2.1,4.6-4.6v-9.7c-3.9,0-7.1-3.2-7.1-7.1s3.2-7.1,7.1-7.1
		v-8.5c0-2.6-2.1-4.6-4.6-4.6H7.6C5,12.7,3,14.8,3,17.3v8.5c3.9,0,7.1,3.2,7.1,7.1S6.9,40,3,40z"/>
	<g>
		<g>
			<line class="st1" x1="46.8" y1="12.6" x2="46.8" y2="15.1"/>
			<line class="st2" x1="46.8" y1="20.4" x2="46.8" y2="49.3"/>
			<line class="st1" x1="46.8" y1="51.8" x2="46.8" y2="54.3"/>
		</g>
	</g>
</g>
</svg>
