<?xml version="1.0" encoding="utf-8"?>
<!-- Generator: Adobe Illustrator 21.0.0, SVG Export Plug-In . SVG Version: 6.00 Build 0)  -->
<svg version="1.1" xmlns="http://www.w3.org/2000/svg" xmlns:xlink="http://www.w3.org/1999/xlink" x="0px" y="0px"
	 viewBox="0 0 15.5 15.5" style="enable-background:new 0 0 15.5 15.5;" xml:space="preserve">
<style type="text/css">
	.sbag0{fill:none;stroke-width:0.7;stroke-miterlimit:10;}
</style>
<g>
	<path class="sbag0" d="M14.1,15.3H1.4c-0.7,0-1.2-0.5-1.2-1.2V8.8c0-1.4,1.1-2.5,2.5-2.5h10c1.4,0,2.5,1.1,2.5,2.5v5.3
		C15.3,14.7,14.7,15.3,14.1,15.3z"/>
	<g>
		<g>
			<path class="sbag0" d="M0.3,12.3L0.3,12.3c1.7,0,3,1.3,3,3v0"/>
			<path class="sbag0" d="M15.3,12.3L15.3,12.3c-1.7,0-3,1.3-3,3v0"/>
		</g>
	</g>
	<path class="sbag0" d="M4.3,7.3V3.7c0-1.9,1.6-3.5,3.5-3.5h0c1.9,0,3.5,1.6,3.5,3.5v3.5"/>
	<g>
		<g>
			<line class="sbag0" x1="2.3" y1="9.3" x2="13.3" y2="9.3"/>
			<line class="sbag0" x1="3.3" y1="9.3" x2="3.3" y2="10.3"/>
		</g>
	</g>
</g>
</svg>
