<?xml version="1.0" encoding="utf-8"?>
<!-- Generator: Adobe Illustrator 21.0.0, SVG Export Plug-In . SVG Version: 6.00 Build 0)  -->
<svg version="1.1" id="Layer_1" xmlns="http://www.w3.org/2000/svg" xmlns:xlink="http://www.w3.org/1999/xlink" x="0px" y="0px"
	 viewBox="0 0 19 18.8" style="enable-background:new 0 0 19 18.8;" xml:space="preserve">
<style type="text/css">
	.st0{fill:none;stroke:#F69302;stroke-width:1.2;stroke-linecap:round;stroke-linejoin:round;stroke-miterlimit:10;}
	.st1{fill:#F69302;}
</style>
<g>
	<path class="st0" d="M16.9,18.2H2.1c-0.8,0-1.5-0.7-1.5-1.5V3.9c0-0.8,0.7-1.5,1.5-1.5h14.8c0.8,0,1.5,0.7,1.5,1.5v12.9
		C18.4,17.6,17.7,18.2,16.9,18.2z"/>
	<path class="st1" d="M10.4,12.1H8.5c-0.3,0-0.5-0.2-0.5-0.5v-1.3c0-0.3,0.2-0.5,0.5-0.5h1.9c0.3,0,0.5,0.2,0.5,0.5v1.3
		C10.9,11.9,10.7,12.1,10.4,12.1z"/>
	<path class="st1" d="M14.6,12.1h-1.9c-0.3,0-0.5-0.2-0.5-0.5v-1.3c0-0.3,0.2-0.5,0.5-0.5h1.9c0.3,0,0.5,0.2,0.5,0.5v1.3
		C15.1,11.9,14.9,12.1,14.6,12.1z"/>
	<path class="st1" d="M6.2,12.1H4.3c-0.3,0-0.5-0.2-0.5-0.5v-1.3c0-0.3,0.2-0.5,0.5-0.5h1.9c0.3,0,0.5,0.2,0.5,0.5v1.3
		C6.7,11.9,6.5,12.1,6.2,12.1z"/>
	<path class="st1" d="M10.4,15.2H8.5C8.3,15.2,8,15,8,14.7v-1.3C8,13.2,8.3,13,8.5,13h1.9c0.3,0,0.5,0.2,0.5,0.5v1.3
		C10.9,15,10.7,15.2,10.4,15.2z"/>
	<path class="st1" d="M14.6,15.2h-1.9c-0.3,0-0.5-0.2-0.5-0.5v-1.3c0-0.3,0.2-0.5,0.5-0.5h1.9c0.3,0,0.5,0.2,0.5,0.5v1.3
		C15.1,15,14.9,15.2,14.6,15.2z"/>
	<path class="st1" d="M6.2,15.2H4.3c-0.3,0-0.5-0.2-0.5-0.5v-1.3c0-0.3,0.2-0.5,0.5-0.5h1.9c0.3,0,0.5,0.2,0.5,0.5v1.3
		C6.7,15,6.5,15.2,6.2,15.2z"/>
	<path class="st1" d="M10.4,9H8.5C8.3,9,8,8.8,8,8.5V7.2C8,7,8.3,6.7,8.5,6.7h1.9c0.3,0,0.5,0.2,0.5,0.5v1.3C10.9,8.8,10.7,9,10.4,9
		z"/>
	<path class="st1" d="M14.6,9h-1.9c-0.3,0-0.5-0.2-0.5-0.5V7.2c0-0.3,0.2-0.5,0.5-0.5h1.9c0.3,0,0.5,0.2,0.5,0.5v1.3
		C15.1,8.8,14.9,9,14.6,9z"/>
	<path class="st1" d="M6.2,9H4.3C4.1,9,3.8,8.8,3.8,8.5V7.2c0-0.3,0.2-0.5,0.5-0.5h1.9c0.3,0,0.5,0.2,0.5,0.5v1.3
		C6.7,8.8,6.5,9,6.2,9z"/>
	<line class="st0" x1="9.5" y1="0.6" x2="9.5" y2="4.2"/>
	<line class="st0" x1="14.5" y1="0.6" x2="14.5" y2="4.2"/>
	<line class="st0" x1="4.4" y1="0.6" x2="4.4" y2="4.2"/>
</g>
</svg>
