<?xml version="1.0" encoding="utf-8"?>
<!-- Generator: Adobe Illustrator 21.0.0, SVG Export Plug-In . SVG Version: 6.00 Build 0)  -->
<svg version="1.1" id="Layer_1" xmlns="http://www.w3.org/2000/svg" xmlns:xlink="http://www.w3.org/1999/xlink" x="0px" y="0px"
	 viewBox="0 0 25 25" style="enable-background:new 0 0 25 25;" xml:space="preserve">
<g>
	<path d="M16.6,15.1h0.7c0.2,0,0.3-0.1,0.3-0.3v-2.3h2.3c0.2,0,0.3-0.1,0.3-0.3v-0.7c0-0.2-0.1-0.3-0.3-0.3h-2.3V8.9
		c0-0.2-0.1-0.3-0.3-0.3h-0.7c-0.2,0-0.3,0.1-0.3,0.3v2.3h-2.3c-0.2,0-0.3,0.1-0.3,0.3v0.7c0,0.2,0.1,0.3,0.3,0.3h2.3v2.3
		C16.3,15,16.4,15.1,16.6,15.1z"/>
	<path d="M7.4,19.2c0.6,0.1,1.2,0.2,1.9,0.2c0.6,0,1.2-0.1,1.7-0.2c1.6-0.5,2.7-1.7,2.7-3c0-1.3-0.4-2.1-1.6-2.9
		c-0.5-0.3-0.9-0.9-0.9-1c0-0.3,0-0.4,0.7-0.9c0.8-0.6,1.3-1.5,1.3-2.4c0-0.8-0.2-1.5-0.7-2h0.3c0.1,0,0.1,0,0.2-0.1l0.9-0.7
		C13.9,6.1,14,5.9,14,5.8c0-0.1-0.2-0.2-0.3-0.2H9.6c-0.4,0-0.9,0.1-1.3,0.2C6.7,6.3,5.7,7.6,5.7,8.9c0,1.8,1.4,3.2,3.3,3.3
		C9,12.3,9,12.5,9,12.6c0,0.3,0.1,0.6,0.2,0.8c0,0,0,0-0.1,0c-1.8,0-3.5,0.9-4.1,2.2c-0.2,0.3-0.2,0.7-0.2,1c0,0.3,0.1,0.7,0.3,1
		C5.4,18.4,6.3,18.9,7.4,19.2z M7.8,8.8C7.7,8.2,7.8,7.6,8.2,7.2C8.4,6.9,8.7,6.8,9,6.8l0,0c0.9,0,1.8,1,1.9,2.2
		c0.1,0.7-0.1,1.3-0.4,1.7c-0.2,0.2-0.5,0.4-0.8,0.4c0,0,0,0,0,0h0C8.8,11.1,7.9,10.1,7.8,8.8z M9.5,14.5L9.5,14.5
		c0.3,0,0.6,0,0.9,0.1c0.1,0.1,0.2,0.1,0.3,0.2c0.6,0.4,1.1,0.7,1.2,1.2c0,0.1,0,0.2,0,0.3c0,1.2-0.9,1.8-2.7,1.8
		c-1.3,0-2.4-0.8-2.4-1.9C6.9,15.3,8.1,14.5,9.5,14.5z"/>
</g>
</svg>
