<?xml version="1.0" encoding="utf-8"?>
<!-- Generator: Adobe Illustrator 21.0.0, SVG Export Plug-In . SVG Version: 6.00 Build 0)  -->
<svg version="1.1" id="Layer_1" xmlns="http://www.w3.org/2000/svg" xmlns:xlink="http://www.w3.org/1999/xlink" x="0px" y="0px"
	 viewBox="0 0 25 25" style="enable-background:new 0 0 25 25;" xml:space="preserve">
<g>
	<path d="M17.6,4.8H8.2c-1.6,0-3,1.3-3,3V11v6.3c0,1.6,1.3,3,3,3h9.4c1.6,0,3-1.3,3-3V11V7.8C20.6,6.2,19.3,4.8,17.6,4.8z M18.5,6.6
		l0.3,0V7v2.3l-2.6,0l0-2.6L18.5,6.6z M10.7,11c0.5-0.7,1.3-1.1,2.2-1.1s1.7,0.4,2.2,1.1c0.3,0.4,0.5,1,0.5,1.6
		c0,1.5-1.2,2.7-2.7,2.7c-1.5,0-2.7-1.2-2.7-2.7C10.2,11.9,10.4,11.4,10.7,11z M19.1,17.2c0,0.8-0.7,1.5-1.5,1.5H8.2
		c-0.8,0-1.5-0.7-1.5-1.5V11H9c-0.2,0.5-0.3,1-0.3,1.6c0,2.3,1.9,4.2,4.2,4.2s4.2-1.9,4.2-4.2c0-0.6-0.1-1.1-0.3-1.6h2.3V17.2z"/>
</g>
</svg>
