<?xml version="1.0" encoding="utf-8"?>
<!-- Generator: Adobe Illustrator 21.0.0, SVG Export Plug-In . SVG Version: 6.00 Build 0)  -->
<svg version="1.1" id="Layer_1" xmlns="http://www.w3.org/2000/svg" xmlns:xlink="http://www.w3.org/1999/xlink" x="0px" y="0px"
	 viewBox="0 0 25 25" style="enable-background:new 0 0 25 25;" xml:space="preserve">
<g>
	<path d="M10.7,16.4c-0.8-0.4-1.6-0.7-2.4-1.1c-0.6-0.3-0.7-0.9-0.6-1.4c0.2-0.8,1.1-1.1,1.8-0.7c0.9,0.5,1.8,0.8,2.8,0.8
		c1.1,0,2.1-0.3,3.1-0.8c0.8-0.5,1.6-0.1,1.8,0.8c0.1,0.4-0.1,1-0.6,1.2c-0.6,0.3-1.3,0.6-2,0.9c-0.2,0.1-0.3,0.1-0.6,0.2
		c0.2,0.2,0.3,0.3,0.4,0.4c0.7,0.7,1.3,1.3,2,2c0.5,0.6,0.6,1.3,0.1,1.8c-0.5,0.5-1.2,0.4-1.8-0.1c-0.7-0.7-1.4-1.4-2.1-2.1
		c-0.2-0.2-0.4-0.2-0.6,0c-0.7,0.7-1.4,1.4-2.1,2.1c-0.4,0.4-0.9,0.5-1.4,0.3c-0.8-0.3-1-1.3-0.4-2c0.7-0.7,1.4-1.4,2.1-2.1
		C10.5,16.6,10.6,16.5,10.7,16.4z"/>
	<path d="M12.5,12.7c-2.4,0-4.3-1.9-4.3-4.3c0-2.1,1.6-4.2,4.3-4.3c2.5,0,4.3,1.9,4.3,4.3C16.8,11.1,14.6,12.8,12.5,12.7z M14.3,8.4
		c0-1.1-0.8-1.8-1.8-1.8c-1,0-1.9,0.8-1.9,1.8c0,1,0.9,1.9,1.9,1.9C13.5,10.3,14.3,9.5,14.3,8.4z"/>
</g>
</svg>
