<?xml version="1.0" encoding="utf-8"?>
<!-- Generator: Adobe Illustrator 21.0.0, SVG Export Plug-In . SVG Version: 6.00 Build 0)  -->
<svg version="1.1" id="Layer_1" xmlns="http://www.w3.org/2000/svg" xmlns:xlink="http://www.w3.org/1999/xlink" x="0px" y="0px"
	 viewBox="0 0 25 25" style="enable-background:new 0 0 25 25;" xml:space="preserve">
<g>
	<path d="M19.6,6.6c-0.6,0.4-1.3,0.6-2,0.7c-0.6-0.6-1.4-1-2.2-1c-1.7,0-3.1,1.4-3.1,3.1c0,0.2,0,0.5,0.1,0.7C9.8,10.1,7.6,8.8,6,7
		C5.8,7.4,5.6,8,5.6,8.5c0,1.1,0.5,2,1.4,2.6c-0.5,0-1-0.2-1.4-0.4c0,0,0,0,0,0c0,1.5,1.1,2.7,2.5,3c-0.3,0.1-0.5,0.1-0.8,0.1
		c-0.2,0-0.4,0-0.6-0.1c0.4,1.2,1.5,2.1,2.9,2.1c-1.1,0.8-2.4,1.3-3.8,1.3c-0.2,0-0.5,0-0.7,0c1.4,0.9,3,1.4,4.7,1.4
		c5.7,0,8.8-4.7,8.8-8.8c0-0.1,0-0.3,0-0.4c0.6-0.4,1.1-1,1.5-1.6c-0.6,0.2-1.1,0.4-1.8,0.5C18.9,8,19.4,7.3,19.6,6.6z"/>
</g>
</svg>
