<?xml version="1.0" encoding="utf-8"?>
<!-- Generator: Adobe Illustrator 21.0.0, SVG Export Plug-In . SVG Version: 6.00 Build 0)  -->
<svg version="1.1" id="Layer_1" xmlns="http://www.w3.org/2000/svg" xmlns:xlink="http://www.w3.org/1999/xlink" x="0px" y="0px"
	 viewBox="0 0 25 25" style="enable-background:new 0 0 25 25;" xml:space="preserve">
<path d="M4.2,8.4c0.1-0.2,0.2-0.2,0.4-0.2c0.1,0,0.2,0,0.3,0c0.7,0,1.4,0,2.1,0c0.4,0,0.6,0.2,0.8,0.5c0.4,0.9,0.9,1.7,1.3,2.6
	c0.2,0.4,0.4,0.7,0.8,0.9c0.1,0.1,0.2,0.1,0.2,0.1c0.2,0.1,0.4,0,0.5-0.2c0.2-0.3,0.2-0.6,0.2-0.9c0.1-0.7,0.1-1.4-0.1-2.1
	c-0.1-0.4-0.3-0.6-0.7-0.7c-0.2,0-0.2-0.1-0.1-0.3C10,8,10.2,7.9,10.4,7.9c0.9-0.1,1.9-0.2,2.8,0c0.5,0.1,0.6,0.2,0.7,0.8
	c0,0.4,0,0.8,0,1.3c0,0.6,0,1.1,0,1.7c0,0.2,0,0.3,0.1,0.5c0.1,0.3,0.4,0.4,0.6,0.2c0.4-0.4,0.7-0.8,1-1.3c0.5-0.7,0.8-1.5,1.1-2.3
	c0.2-0.4,0.2-0.5,0.7-0.5c0.9,0,1.7,0,2.6,0c0.1,0,0.3,0,0.4,0.1c0.2,0.1,0.3,0.2,0.3,0.5c-0.1,0.4-0.3,0.7-0.5,1.1
	c-0.6,0.8-1.2,1.6-1.7,2.4c-0.1,0.2-0.3,0.4-0.4,0.6c-0.2,0.3-0.2,0.6,0.1,0.9c0.4,0.4,0.8,0.8,1.2,1.2c0.4,0.4,0.8,0.9,1.1,1.4
	c0.1,0.1,0.1,0.2,0.1,0.3c0.1,0.4-0.1,0.6-0.5,0.7c-0.4,0-0.7,0-1.1,0c-0.5,0-1,0-1.4,0c-0.4,0-0.8-0.1-1.1-0.4
	c-0.3-0.3-0.6-0.6-0.9-0.9c-0.2-0.2-0.4-0.5-0.7-0.7c-0.1-0.1-0.1-0.1-0.2-0.1c-0.2-0.1-0.3-0.1-0.5,0.1c-0.3,0.3-0.4,0.6-0.4,1
	c0,0.2,0,0.3,0,0.5c0,0.3-0.2,0.5-0.5,0.5c-1.4,0.1-2.8-0.1-4-0.9c-0.8-0.6-1.5-1.3-2.1-2c-1.3-1.7-2.2-3.5-3.1-5.4
	c0,0,0-0.1-0.1-0.1C4.2,8.6,4.2,8.5,4.2,8.4z"/>
</svg>
