<?xml version="1.0" encoding="utf-8"?>
<!-- Generator: Adobe Illustrator 21.0.0, SVG Export Plug-In . SVG Version: 6.00 Build 0)  -->
<svg version="1.1" id="Travel" xmlns="http://www.w3.org/2000/svg" xmlns:xlink="http://www.w3.org/1999/xlink" x="0px" y="0px"
	 viewBox="0 0 67 67" style="enable-background:new 0 0 67 67;" xml:space="preserve">
<style type="text/css">
	.st0{fill:none;stroke:#F5841F;stroke-width:1.5;stroke-linecap:round;stroke-linejoin:round;stroke-miterlimit:10;}
</style>
<g id="_x33__3_">
	<path class="st0" d="M11.5,22.6c1-1.2,3.9,0,5.3,0.6c1.9,0.8,1.9,3,3.7,3.6c1.4,0.5,4.8-1.3,7.3-0.3c1.7,0.6,2.7,7.3,1.8,9
		c-1,1.7-4.5,2.1-5.6,3.7c-1.2,1.8,1.1,7-2.3,7.6c-2.7,0.5-5.6-6.4-5.8-6.9c-0.6-1.6,1.5-5.3,0.3-6.6c-1.1-1.2-7.5,3.3-7.7,0.8
		C8.2,31.4,9.7,24.9,11.5,22.6z"/>
	<path class="st0" d="M55.4,23c0,0-1,3.9-4,3.8c-1.9-0.1-5.2-4.4-6.6-5.7c-1.5-1.4-4-3.7-6.1-2.2c-1.9,1.4,0.9,7,0.9,9.3
		c0,3.4-5.3,6.7-3.1,9.3c1.9,2.2,3.8-4.3,9.3-0.9c2.9,1.8-0.2,7.2,1.9,8.9c1.4,1.1,2.5-1.1,4.2-1.7c1-0.3,3.9,0.7,3.9,0.7
		s2.4-3.4,2.4-10.8C58.1,23.9,55.4,23,55.4,23z"/>
	<path class="st0" d="M58.5,33.4c0,13.3-9.6,25.1-25.1,25.1c-13.8,0-25-11.3-25-25.1s11.2-25,25-25S58.5,19.6,58.5,33.4z"/>
</g>
</svg>
