<?xml version="1.0" encoding="UTF-8"?><!DOCTYPE svg PUBLIC "-//W3C//DTD SVG 1.1//EN" "http://www.w3.org/Graphics/SVG/1.1/DTD/svg11.dtd"><svg xmlns="http://www.w3.org/2000/svg"><defs><clipPath id="a"><path fill-opacity=".67" d="M-85.333 0h682.67v512h-682.67z"/></clipPath><style>.clss-1{fill:#f5841f}</style></defs><symbol id="arr-circle" viewBox="0 0 29.5 29.5"><style>.stroute0,.stroute1{fill:none;stroke:#dedede;stroke-miterlimit:10}.stroute1{stroke:#969696;stroke-linecap:round;stroke-linejoin:round}</style><circle class="stroute0" cx="14.8" cy="14.8" r="14.3"/><path class="stroute1" d="M10.3 14.8h8.9M15.2 10.8l4 4-4 3.9"/></symbol><symbol id="arr-down" viewBox="0 0 8.2 4.7"><style>.st-arr-d0{fill:none;stroke-width:1.2;stroke-linecap:round;stroke-linejoin:round;stroke-miterlimit:10}</style><path class="st-arr-d0" d="M7.6.6L4.1 4.1.6.6"/></symbol><symbol id="bag" viewBox="0 0 15.5 15.5"><style>.sbag0{fill:none;stroke-width:1;stroke-miterlimit:10}</style><path class="sbag0" d="M14.1 15.3H1.4c-.7 0-1.2-.5-1.2-1.2V8.8c0-1.4 1.1-2.5 2.5-2.5h10c1.4 0 2.5 1.1 2.5 2.5v5.3c.1.6-.5 1.2-1.1 1.2zM.3 12.3c1.7 0 3 1.3 3 3M15.3 12.3c-1.7 0-3 1.3-3 3"/><path class="sbag0" d="M4.3 7.3V3.7C4.3 1.8 5.9.2 7.8.2s3.5 1.6 3.5 3.5v3.5"/><g><path class="sbag0" d="M2.3 9.3h11M3.3 9.3v1"/></g></symbol><symbol id="by" viewBox="0 0 640 480"><g fill-rule="evenodd"><path fill="#b20000" d="M0 0h1024v340.11H0z"/><path fill="#429f00" d="M0 340.11h1024V512H0z"/><path fill="#fff" d="M0 0h113.37v512H0z"/><g stroke-width="1pt" fill="#b20000"><path d="M5.394 8.682h5.398v8.68H5.394zm16.196 0h16.196v8.68H21.59zM26.983 0h5.398v8.68h-5.397zM53.98 0h5.4v8.68h-5.4zm21.59 8.682h16.197v8.68H75.57zM80.98 0h5.398v8.68H80.98z"/><path d="M16.196 17.36h10.798v8.68H16.196zm16.196 0H43.19v8.68H32.392zm37.785 0h10.798v8.68H70.177zm16.196 0H97.17v8.68H86.374zm-75.586 8.68h10.798v8.678H10.787zm26.999 0h10.797v8.678H37.786zm26.998 0H75.58v8.678H64.785zm26.983 0h10.797v8.678H91.767zM102.57 8.682h5.397v8.68h-5.398zM5.394 34.718h10.798v8.678H5.394zm37.786 0h10.797v8.678H43.18zm53.995 0h10.798v8.678H97.175zM10.787 60.75h10.798v8.68H10.787zm5.409 8.68h10.798v8.677H16.196zm21.59-8.68h10.797v8.68H37.786zm-5.394 8.68H43.19v8.677H32.392zM21.59 78.107h16.196v8.678H21.59z"/><path d="M26.983 86.784h5.398v8.68h-5.397zm37.801-26.032H75.58v8.678H64.785zm5.393 8.678h10.798v8.677H70.177zm21.59-8.68h10.797v8.68H91.767zm-5.394 8.68H97.17v8.677H86.374zM75.57 78.107h16.197v8.678H75.57z"/><path d="M80.98 86.784h5.398v8.68H80.98zm-27-8.677h5.4v8.678h-5.4zm-53.98 0h5.398v8.678H0zm107.963 0h5.398v8.678h-5.397zm-80.98 43.39h5.398v8.678h-5.397z"/><path d="M21.59 130.174h16.196v8.678H21.59zm-5.394 8.678H43.19v8.678H16.196zm64.784-17.355h5.398v8.678H80.98z"/><path d="M75.57 130.174h16.197v8.678H75.57zm-5.393 8.678H97.17v8.678H70.178zm5.393 43.39h26.994v8.678H75.57zM64.784 147.53h37.79v8.68h-37.79zm-53.997 0h37.79v8.68h-37.79zm5.409 43.39h16.196v8.678H16.196zm-5.409-8.678H37.78v8.678H10.788zm75.586-17.356h26.994v8.678H86.373zM80.98 190.92h16.195v8.678H80.98z"/><path d="M21.59 199.597h5.398v8.68H21.59zm64.783 0h5.398v8.68h-5.397zM0 164.886h26.994v8.678H0zm48.588 17.356h16.196v8.678H48.588zm5.392 8.678h5.4v8.678h-5.4zm-16.194-26.034h37.79v8.678h-37.79zM59.375 34.718h10.798v8.678H59.375z"/><path d="M48.588 43.395h16.196v8.678H48.588z"/><path d="M43.18 52.073h10.797v8.68H43.18zm16.195 0h10.798v8.68H59.375zM0 43.395h10.798v8.678H0z"/><path d="M5.394 52.073h10.798v8.68H5.394zm97.176-8.678h10.797v8.678H102.57zm-5.395 8.678h10.798v8.68H97.175zM0 130.174h5.398v8.678H0zm107.963 0h5.398v8.678h-5.397zm-59.375 69.423h16.196v8.68H48.588z"/><path d="M43.18 208.276h10.797v8.678H43.18zm16.195 0h10.798v8.678H59.375zm-21.589 8.678h10.797v8.678H37.786zm26.998 0H75.58v8.678H64.785z"/><path d="M32.392 225.63H43.19v8.68H32.392zm37.785 0h10.798v8.68H70.177zm-43.194 8.68H37.78v8.678H26.984zm48.587 0h10.8v8.678h-10.8z"/><path d="M16.196 242.987h16.196v8.678H16.196zm64.784 0h16.195v8.678H80.98z"/><path d="M91.767 234.31h10.797v8.678H91.767zm5.408-8.68h10.798v8.68H97.175z"/><path d="M102.57 216.954h10.797v8.678H102.57zM10.787 234.31h10.798v8.678H10.787zm-5.393-8.68h10.798v8.68H5.394z"/><path d="M0 216.954h10.798v8.678H0zm21.59 34.711h5.398v8.678H21.59zm64.783 0h5.398v8.678h-5.397zM53.98 225.63h5.4v8.68h-5.4zm-16.194 26.035h5.398v8.678h-5.398zm32.391 0h5.398v8.678h-5.398zm-16.197 0h5.4v8.678h-5.4zm-53.98 0h5.398v8.678H0zm107.963 0h5.398v8.678h-5.397zM53.98 130.174h5.4v8.678h-5.4zM26.983 43.395h5.398v8.678h-5.397zm53.997 0h5.398v8.678H80.98zM48.588 104.14h16.196v8.68H48.588z"/><path d="M37.786 112.818H53.98v8.68H37.787z"/><path d="M43.18 121.497h5.397v8.678H43.18zM32.392 104.14H43.19v8.68H32.392z"/><path d="M37.786 95.463H53.98v8.678H37.787z"/><path d="M43.18 86.784h5.397v8.68H43.18zm16.195 8.679H75.57v8.678H59.376z"/><path d="M64.784 86.784h5.398v8.68h-5.398zm5.393 17.356h10.798v8.68H70.177z"/><path d="M59.375 112.818H75.57v8.68H59.376z"/><path d="M64.784 121.497h5.398v8.678h-5.398zm21.589-17.357H97.17v8.68H86.374z"/><path d="M91.767 95.463h16.196v8.678H91.767z"/><path d="M102.57 104.14h10.797v8.68H102.57z"/><path d="M91.767 112.818h16.196v8.68H91.767z"/><path d="M97.175 121.497h5.4v8.678h-5.4zm0-34.713h5.4v8.68h-5.4zM0 104.14h10.798v8.68H0z"/><path d="M5.394 95.463H21.59v8.678H5.394z"/><path d="M16.196 104.14h10.798v8.68H16.196z"/><path d="M5.394 112.818H21.59v8.68H5.394z"/><path d="M10.787 121.497h5.398v8.678h-5.398zm0-34.713h5.398v8.68h-5.398zm-5.393 69.424h21.594v8.678H5.394zm26.998 0h21.594v8.678H32.392zm26.983 0H80.97v8.678H59.374zm26.998 0h21.594v8.678H86.373zM43.18 173.563h26.993v8.68H43.18zm-37.786 0h26.993v8.68H5.394zm75.586 0h26.993v8.68H80.98zm26.983 34.713h5.398v8.678h-5.397zM0 208.276h5.398v8.678H0zm5.394 295.051h5.398v-8.678H5.394zm16.196 0h16.196v-8.678H21.59z"/><path d="M26.983 511.997h5.398v-8.678h-5.397zm26.997 0h5.4v-8.678h-5.4zm21.59-8.67h16.197v-8.678H75.57z"/><path d="M80.98 511.997h5.398v-8.678H80.98zm-64.784-17.352h10.798v-8.678H16.196zm16.196 0H43.19v-8.678H32.392zm37.785 0h10.798v-8.678H70.177zm16.196 0H97.17v-8.678H86.374zm-48.587-8.682h10.797v-8.678H37.786zm26.998 0H75.58v-8.678H64.785zm26.983 0h10.797v-8.678H91.767zm10.803 17.364h5.397v-8.678h-5.398zM5.394 477.293h10.798v-8.678H5.394z"/><path d="M43.18 477.293h10.797v-8.678H43.18zm53.995 0h10.798v-8.678H97.175zM10.787 451.26h10.798v-8.68H10.787zm5.409-8.683h10.798V433.9H16.196zm21.59 8.683h10.797v-8.68H37.786zm-5.394-8.683H43.19V433.9H32.392zm-10.802-8.682h16.196v-8.678H21.59z"/><path d="M26.983 425.225h5.398v-8.678h-5.397zm37.801 26.035H75.58v-8.68H64.785zm5.393-8.683h10.798V433.9H70.177zm21.59 8.683h10.797v-8.68H91.767zm-5.394-8.683H97.17V433.9H86.374zm-10.803-8.682h16.197v-8.678H75.57z"/><path d="M80.98 425.225h5.398v-8.678H80.98zm-27 8.67h5.4v-8.678h-5.4zm-53.98 0h5.398v-8.678H0zm107.963 0h5.398v-8.678h-5.397zm-80.98-43.385h5.398v-8.68h-5.397z"/><path d="M21.59 381.84h16.196v-8.68H21.59zm-5.394-8.682H43.19v-8.68H16.196zM80.98 390.51h5.398v-8.68H80.98z"/><path d="M75.57 381.84h16.197v-8.68H75.57zm-5.393-8.682H97.17v-8.68H70.178zm5.393-43.386h26.994v-8.68H75.57zm-10.786 34.703h37.79v-8.678h-37.79zm-53.997 0h37.79v-8.678h-37.79zm5.409-43.385h16.196v-8.682H16.196zm-5.409 8.682H37.78v-8.68H10.788zm75.586 17.352h26.994v-8.68H86.373zM80.98 321.09h16.195v-8.68H80.98zM0 347.124h26.994v-8.68H0zm48.588-17.352h16.196v-8.68H48.588zm5.392-8.682h5.4v-8.68h-5.4zm-16.194 26.034h37.79v-8.68h-37.79zm21.589 130.169h10.798v-8.678H59.375zm-10.787-8.683h16.196v-8.677H48.588zm-5.408-8.68h10.797v-8.68H43.18zm16.195 0h10.798v-8.68H59.375zM0 468.61h10.798v-8.677H0zm5.394-8.68h10.798v-8.68H5.394zm97.176 8.68h10.797v-8.677H102.57zm-5.395-8.68h10.798v-8.68H97.175zM0 381.84h5.398v-8.68H0zm107.963 0h5.398v-8.68h-5.397zM43.18 303.738h10.797v-8.68H43.18zm16.195 0h10.798v-8.68H59.375zm-21.589-8.682h10.797v-8.68H37.786zm26.998 0H75.58v-8.68H64.785zm-32.392-8.682H43.19v-8.68H32.392zm37.785 0h10.798v-8.68H70.177z"/><path d="M26.983 277.704H37.78v-8.68H26.984zm48.587 0h10.8v-8.68h-10.8zm-59.374-8.682h16.196v-8.68H16.196zm64.784 0h16.195v-8.68H80.98zm10.787 8.682h10.797v-8.68H91.767z"/><path d="M97.175 286.374h10.798v-8.68H97.175zm5.395 8.682h10.797v-8.68H102.57zm-91.783-17.352h10.798v-8.68H10.787z"/><path d="M5.394 286.374h10.798v-8.68H5.394zM0 295.056h10.798v-8.68H0zm21.59-34.713h5.398v-8.678H21.59zm32.39 26.031h5.4v-8.68h-5.4zm0 95.466h5.4v-8.68h-5.4zm-26.997 86.77h5.398v-8.677h-5.397zm53.997 0h5.398v-8.677H80.98zm-32.392-60.737h16.196v-8.678H48.588zm-10.802-8.683H53.98v-8.677H37.787zm5.394-8.68h5.397v-8.68H43.18zm-10.788 17.363H43.19v-8.678H32.392z"/><path d="M37.786 416.543H53.98v-8.678H37.787zm5.394 8.682h5.397v-8.678H43.18zm16.195-8.682H75.57v-8.678H59.376zm5.409 8.682h5.398v-8.678h-5.398z"/><path d="M70.177 407.873h10.798v-8.678H70.177zm-10.802-8.683H75.57v-8.677H59.376zm5.409-8.68h5.398v-8.68h-5.398zm21.589 17.363H97.17v-8.678H86.374z"/><path d="M91.767 416.543h16.196v-8.678H91.767z"/><path d="M102.57 407.873h10.797v-8.678H102.57zm-10.803-8.683h16.196v-8.677H91.767zm5.408-8.68h5.4v-8.68h-5.4zm0 34.715h5.4v-8.678h-5.4zM0 407.873h10.798v-8.678H0z"/><path d="M5.394 416.543H21.59v-8.678H5.394z"/><path d="M16.196 407.873h10.798v-8.678H16.196zM5.394 399.19H21.59v-8.677H5.394zm5.393-8.68h5.398v-8.68h-5.398zm0 34.715h5.398v-8.678h-5.398zm-5.393-69.419h21.594v-8.68H5.394zm26.998 0h21.594v-8.68H32.392zm26.983 0H80.97v-8.68H59.374zm26.998 0h21.594v-8.68H86.373zM43.18 338.442h26.993v-8.68H43.18zm-37.786 0h26.993v-8.68H5.394zm75.586 0h26.993v-8.68H80.98zm26.983-34.704h5.398v-8.68h-5.397zM0 303.738h5.398v-8.68H0zm48.588-43.395h5.398v8.68h-5.398zm10.787 0h5.398v8.68h-5.398zm0-17.356h5.398v8.678h-5.398zm-10.787 0h5.398v8.678h-5.398zM10.787 477.293h10.798v8.68H10.787zm75.586-164.885h5.398v-8.68h-5.397zm-64.783 0h5.398v-8.68H21.59zm26.995-8.674H64.78v8.677H48.585z"/></g></g></symbol><symbol id="calendar" viewBox="0 0 19 18.8"><style>.st0{fill:none;stroke:#f69302;stroke-width:1.2;stroke-linecap:round;stroke-linejoin:round;stroke-miterlimit:10}.st1{fill:#f69302}</style><path class="st0" d="M16.9 18.2H2.1c-.8 0-1.5-.7-1.5-1.5V3.9c0-.8.7-1.5 1.5-1.5h14.8c.8 0 1.5.7 1.5 1.5v12.9c0 .8-.7 1.4-1.5 1.4z"/><path class="st1" d="M10.4 12.1H8.5c-.3 0-.5-.2-.5-.5v-1.3c0-.3.2-.5.5-.5h1.9c.3 0 .5.2.5.5v1.3c0 .3-.2.5-.5.5zM14.6 12.1h-1.9c-.3 0-.5-.2-.5-.5v-1.3c0-.3.2-.5.5-.5h1.9c.3 0 .5.2.5.5v1.3c0 .3-.2.5-.5.5zM6.2 12.1H4.3c-.3 0-.5-.2-.5-.5v-1.3c0-.3.2-.5.5-.5h1.9c.3 0 .5.2.5.5v1.3c0 .3-.2.5-.5.5zM10.4 15.2H8.5c-.2 0-.5-.2-.5-.5v-1.3c0-.2.3-.4.5-.4h1.9c.3 0 .5.2.5.5v1.3c0 .2-.2.4-.5.4zM14.6 15.2h-1.9c-.3 0-.5-.2-.5-.5v-1.3c0-.3.2-.5.5-.5h1.9c.3 0 .5.2.5.5v1.3c0 .3-.2.5-.5.5zM6.2 15.2H4.3c-.3 0-.5-.2-.5-.5v-1.3c0-.3.2-.5.5-.5h1.9c.3 0 .5.2.5.5v1.3c0 .3-.2.5-.5.5zM10.4 9H8.5c-.2 0-.5-.2-.5-.5V7.2c0-.2.3-.5.5-.5h1.9c.3 0 .5.2.5.5v1.3c0 .3-.2.5-.5.5zM14.6 9h-1.9c-.3 0-.5-.2-.5-.5V7.2c0-.3.2-.5.5-.5h1.9c.3 0 .5.2.5.5v1.3c0 .3-.2.5-.5.5zM6.2 9H4.3c-.2 0-.5-.2-.5-.5V7.2c0-.3.2-.5.5-.5h1.9c.3 0 .5.2.5.5v1.3c0 .3-.2.5-.5.5z"/><path class="st0" d="M9.5.6v3.6M14.5.6v3.6M4.4.6v3.6"/></symbol><symbol id="fb" viewBox="0 0 25 25"><path d="M10.5 20h3.1v-7.5h2.1l.3-2.6h-2.4V8.3c0-.6.4-.7.7-.7H16V5h-2.3c-2.6 0-3.1 1.9-3.1 3.1v1.7H9v2.6h1.5V20z"/></symbol><symbol id="g+" viewBox="0 0 25 25"><path d="M16.6 15.1h.7c.2 0 .3-.1.3-.3v-2.3h2.3c.2 0 .3-.1.3-.3v-.7c0-.2-.1-.3-.3-.3h-2.3V8.9c0-.2-.1-.3-.3-.3h-.7c-.2 0-.3.1-.3.3v2.3H14c-.2 0-.3.1-.3.3v.7c0 .2.1.3.3.3h2.3v2.3c0 .2.1.3.3.3z"/><path d="M7.4 19.2c.6.1 1.2.2 1.9.2.6 0 1.2-.1 1.7-.2 1.6-.5 2.7-1.7 2.7-3s-.4-2.1-1.6-2.9c-.5-.3-.9-.9-.9-1 0-.3 0-.4.7-.9.8-.6 1.3-1.5 1.3-2.4 0-.8-.2-1.5-.7-2h.3c.1 0 .1 0 .2-.1l.9-.7c0-.1.1-.3.1-.4 0-.1-.2-.2-.3-.2H9.6c-.4 0-.9.1-1.3.2-1.6.5-2.6 1.8-2.6 3.1 0 1.8 1.4 3.2 3.3 3.3v.4c0 .3.1.6.2.8h-.1c-1.8 0-3.5.9-4.1 2.2-.2.3-.2.7-.2 1 0 .3.1.7.3 1 .3.8 1.2 1.3 2.3 1.6zm.4-10.4c-.1-.6 0-1.2.4-1.6.2-.3.5-.4.8-.4.9 0 1.8 1 1.9 2.2.1.7-.1 1.3-.4 1.7-.2.2-.5.4-.8.4-.9 0-1.8-1-1.9-2.3zm1.7 5.7c.3 0 .6 0 .9.1.1.1.2.1.3.2.6.4 1.1.7 1.2 1.2v.3c0 1.2-.9 1.8-2.7 1.8-1.3 0-2.4-.8-2.4-1.9.1-.9 1.3-1.7 2.7-1.7z"/></symbol><symbol id="gb" viewBox="0 0 640 480"><g clip-path="url(#a)" transform="translate(80) scale(.94)"><g stroke-width="1pt"><path fill="#006" d="M-256 0H768.02v512.01H-256z"/><path d="M-256 0v57.244l909.535 454.768H768.02V454.77L-141.515 0H-256zM768.02 0v57.243L-141.515 512.01H-256v-57.243L653.535 0H768.02z" fill="#fff"/><path d="M170.675 0v512.01h170.67V0h-170.67zM-256 170.67v170.67H768.02V170.67H-256z" fill="#fff"/><path d="M-256 204.804v102.402H768.02V204.804H-256zM204.81 0v512.01h102.4V0h-102.4zM-256 512.01L85.34 341.34h76.324l-341.34 170.67H-256zM-256 0L85.34 170.67H9.016L-256 38.164V0zm606.356 170.67L691.696 0h76.324L426.68 170.67h-76.324zM768.02 512.01L426.68 341.34h76.324L768.02 473.848v38.162z" fill="#c00"/></g></g></symbol><symbol id="inst" viewBox="0 0 25 25"><path d="M17.6 4.8H8.2c-1.6 0-3 1.3-3 3v9.5c0 1.6 1.3 3 3 3h9.4c1.6 0 3-1.3 3-3V7.8c0-1.6-1.3-3-3-3zm.9 1.8h.3V9.3h-2.6V6.7l2.3-.1zM10.7 11c.5-.7 1.3-1.1 2.2-1.1s1.7.4 2.2 1.1c.3.4.5 1 .5 1.6 0 1.5-1.2 2.7-2.7 2.7-1.5 0-2.7-1.2-2.7-2.7 0-.7.2-1.2.5-1.6zm8.4 6.2c0 .8-.7 1.5-1.5 1.5H8.2c-.8 0-1.5-.7-1.5-1.5V11H9c-.2.5-.3 1-.3 1.6 0 2.3 1.9 4.2 4.2 4.2s4.2-1.9 4.2-4.2c0-.6-.1-1.1-.3-1.6h2.3v6.2z"/></symbol><symbol id="login" viewBox="0 0 12.7 14.4"><g fill="none" stroke-miterlimit="10"><circle cx="6.3" cy="4.3" r="4"/><path d="M.3 14.4c0-3.3 2.7-6 6-6s6 2.7 6 6"/><path d="M9.3 9c-.3 1.4-1.5 2.4-2.9 2.4s-2.6-1-2.9-2.3"/></g></symbol><symbol id="logof" viewBox="0 0 55.4 54.7"><style>.flex{fill-rule:evenodd;clip-rule:evenodd}</style><path class="flex" d="M55.3 51.2V3.9c-.2-.8.3-6.4-4.8-2.7-5 3.3-18.6 12.4-18.6 12.4s-3.5 3.3-8.5 0C16.8 9.3 4.5 1.2 4.5 1.2S.2-2.3 0 3.6v48s0 4.1 3.7 2.8C5.4 53.3 7.3 52 8.9 51c2.6-2.2 2.6-5.5 2.6-5.5v-5.4c0-6 4-1.8 4-1.8s5.4 3.6 7.8 5.3c4.8 2.5 8 .2 8 .2s6.9-4.6 9.5-6.4c3.2-2.5 3 2.6 3 2.6v3.8s-.4 3.9 2.6 6.5c1.5 1.2 3.3 2.6 4.9 3.9 4.8 2.1 4-3 4-3zM41.2 26l-10.5 7s-3 1.9-6.5 0c-3.2-2.2-10.8-7.2-10.8-7.2s-2-.6-2-3.6v-2.6s-.2-3.9 2.8-1.5l9.9 6.6c3.1 2.4 6.7 0 6.7 0s6.8-4.6 11.1-7.5c1.9-1.4 1.6 1.1 1.6 1.1v3.2c0 .2.4 2.6-2.3 4.5z"/></symbol><symbol id="ok" viewBox="0 0 25 25"><path d="M10.7 16.4c-.8-.4-1.6-.7-2.4-1.1-.6-.3-.7-.9-.6-1.4.2-.8 1.1-1.1 1.8-.7.9.5 1.8.8 2.8.8 1.1 0 2.1-.3 3.1-.8.8-.5 1.6-.1 1.8.8.1.4-.1 1-.6 1.2-.6.3-1.3.6-2 .9-.2.1-.3.1-.6.2l.4.4 2 2c.5.6.6 1.3.1 1.8s-1.2.4-1.8-.1l-2.1-2.1c-.2-.2-.4-.2-.6 0l-2.1 2.1c-.4.4-.9.5-1.4.3-.8-.3-1-1.3-.4-2l2.1-2.1c.3 0 .4-.1.5-.2zM12.5 12.7c-2.4 0-4.3-1.9-4.3-4.3 0-2.1 1.6-4.2 4.3-4.3 2.5 0 4.3 1.9 4.3 4.3 0 2.7-2.2 4.4-4.3 4.3zm1.8-4.3c0-1.1-.8-1.8-1.8-1.8s-1.9.8-1.9 1.8.9 1.9 1.9 1.9c1 0 1.8-.8 1.8-1.9z"/></symbol><symbol id="ru" viewBox="0 0 640 480"><g fill-rule="evenodd" stroke-width="1pt"><path fill="#fff" d="M0 0h640v480H0z"/><path fill="#0039a6" d="M0 160.003h640V480H0z"/><path fill="#d52b1e" d="M0 319.997h640V480H0z"/></g></symbol><symbol id="slider-arrow" viewBox="0 0 38.7 35.7"><style>.slider-arr0{fill:none;stroke:#000;stroke-width:3;stroke-miterlimit:10}.slider-arr1{fill:none}</style><path class="slider-arr0" d="M19.8 1.1l16.8 16.8-16.8 16.8"/><path class="slider-arr1" d="M36.6 17.9H0"/><path class="slider-arr0" d="M35.5 17.9H0"/></symbol><symbol id="small-arr-down" viewBox="0 0 7.2 4.4"><path d="M3.4 2.4L1.1.1C.9 0 .7 0 .6.1L.1.6c-.1.1-.1.3 0 .5l3.3 3.3c.1.1.3.1.5 0l3.3-3.3c.1-.1.1-.3 0-.5L6.6.1c-.1-.1-.3-.1-.5 0L3.8 2.4c-.1.1-.3.1-.4 0z"/></symbol><symbol id="strelka" viewBox="0 0 10 6"><style/><path class="strelka0" d="M5 6L0 0h10L5 6z"/></symbol><symbol id="ticets2" viewBox="0 0 14.7 18.89"><path class="clss-1" d="M12.66 2.4a.66.66 0 0 0-.6.21 2.35 2.35 0 0 1-2.7 1.07A2.35 2.35 0 0 1 7.9 1.17a.66.66 0 0 0-.34-.55L5.86 0a.47.47 0 0 0-.64.31L0 15.27a.47.47 0 0 0 .31.64l1.7.59a.66.66 0 0 0 .6-.21 2.22 2.22 0 0 1 4.19 1.43c-.07.19.15.48.34.54l1.7.59a.47.47 0 0 0 .64-.31l5.18-14.92a.47.47 0 0 0-.3-.62z"/></symbol><symbol id="tw" viewBox="0 0 25 25"><path d="M19.6 6.6c-.6.4-1.3.6-2 .7-.6-.6-1.4-1-2.2-1-1.7 0-3.1 1.4-3.1 3.1 0 .2 0 .5.1.7C9.8 10.1 7.6 8.8 6 7c-.2.4-.4 1-.4 1.5 0 1.1.5 2 1.4 2.6-.5 0-1-.2-1.4-.4 0 1.5 1.1 2.7 2.5 3-.3.1-.5.1-.8.1-.2 0-.4 0-.6-.1.4 1.2 1.5 2.1 2.9 2.1-1.1.8-2.4 1.3-3.8 1.3h-.7c1.4.9 3 1.4 4.7 1.4 5.7 0 8.8-4.7 8.8-8.8v-.4c.6-.4 1.1-1 1.5-1.6-.6.2-1.1.4-1.8.5.6-.2 1.1-.9 1.3-1.6z"/></symbol><symbol id="vk" viewBox="0 0 25 25"><path d="M4.2 8.4c.1-.2.2-.2.4-.2H7c.4 0 .6.2.8.5.4.9.9 1.7 1.3 2.6.2.4.4.7.8.9.1.1.2.1.2.1.2.1.4 0 .5-.2.2-.3.2-.6.2-.9.1-.7.1-1.4-.1-2.1-.1-.4-.3-.6-.7-.7-.2 0-.2-.1-.1-.3.1-.1.3-.2.5-.2.9-.1 1.9-.2 2.8 0 .5.1.6.2.7.8v3c0 .2 0 .3.1.5.1.3.4.4.6.2.4-.4.7-.8 1-1.3.5-.7.8-1.5 1.1-2.3.2-.4.2-.5.7-.5H20c.1 0 .3 0 .4.1.2.1.3.2.3.5-.1.4-.3.7-.5 1.1-.6.8-1.2 1.6-1.7 2.4-.1.2-.3.4-.4.6-.2.3-.2.6.1.9l1.2 1.2c.4.4.8.9 1.1 1.4.1.1.1.2.1.3.1.4-.1.6-.5.7h-2.5c-.4 0-.8-.1-1.1-.4l-.9-.9c-.2-.2-.4-.5-.7-.7-.1-.1-.1-.1-.2-.1-.2-.1-.3-.1-.5.1-.3.3-.4.6-.4 1v.5c0 .3-.2.5-.5.5-1.4.1-2.8-.1-4-.9-.8-.6-1.5-1.3-2.1-2-1.3-1.7-2.2-3.5-3.1-5.4 0 0 0-.1-.1-.1.2-.5.2-.6.2-.7z"/></symbol></svg>